
<svg width="183" height="38" viewBox="0 0 183 38" fill="none" xmlns="http://www.w3.org/2000/svg">
<path d="M51.088 29.8995H55.5036V21.2548H65.5476V17.4611H55.5036V12.9522H65.7653V9.15854H51.088V29.8995Z" fill="black"/>
<path d="M75.725 30.2726C80.7003 30.2726 83.6855 26.6655 83.6855 22.3743C83.6855 18.1141 80.7003 14.507 75.725 14.507C70.7807 14.507 67.7955 18.1141 67.7955 22.3743C67.7955 26.6655 70.7807 30.2726 75.725 30.2726ZM75.725 26.7588C73.2684 26.7588 71.9002 24.7376 71.9002 22.3743C71.9002 20.0421 73.2684 18.0209 75.725 18.0209C78.1815 18.0209 79.5808 20.0421 79.5808 22.3743C79.5808 24.7376 78.1815 26.7588 75.725 26.7588Z" fill="black"/>
<path d="M86.6153 29.8995H90.5645V19.9799C91.2175 19.0159 92.9589 18.3007 94.2649 18.3007C94.7003 18.3007 95.0734 18.3318 95.3533 18.394V14.5381C93.4875 14.5381 91.6218 15.5954 90.5645 16.9325V14.8802H86.6153V29.8995Z" fill="black"/>
<path d="M102.858 30.2726C104.506 30.2726 105.564 29.8373 106.154 29.3086L105.315 26.3234C105.097 26.5411 104.537 26.7588 103.947 26.7588C103.076 26.7588 102.578 26.0436 102.578 25.1107V18.3318H105.626V14.8802H102.578V10.7755H98.5982V14.8802H96.1105V18.3318H98.5982V26.168C98.5982 28.8422 100.091 30.2726 102.858 30.2726Z" fill="black"/>
<path d="M126.954 29.8995H130.935V19.047C130.935 15.9685 129.286 14.507 126.519 14.507C124.218 14.507 122.228 15.8752 121.357 17.2435C120.797 15.5332 119.398 14.507 117.19 14.507C114.889 14.507 112.899 15.9374 112.277 16.8392V14.8802H108.328V29.8995H112.277V19.7933C112.868 18.9537 114.018 18.0209 115.387 18.0209C117.004 18.0209 117.625 19.0159 117.625 20.4152V29.8995H121.606V19.7622C122.165 18.9537 123.316 18.0209 124.715 18.0209C126.332 18.0209 126.954 19.0159 126.954 20.4152V29.8995Z" fill="black"/>
<path d="M143.826 29.8995H147.775V20.1976C147.775 15.8752 144.634 14.507 141.214 14.507C138.85 14.507 136.487 15.2533 134.652 16.8703L136.145 19.5135C137.42 18.3318 138.913 17.741 140.53 17.741C142.52 17.741 143.826 18.7361 143.826 20.2598V22.3432C142.831 21.1304 141.058 20.5085 139.068 20.5085C136.674 20.5085 133.844 21.7834 133.844 25.2973C133.844 28.6556 136.674 30.2726 139.068 30.2726C141.027 30.2726 142.8 29.5574 143.826 28.3447V29.8995ZM143.826 26.2923C143.173 27.163 141.929 27.5984 140.654 27.5984C139.099 27.5984 137.824 26.7899 137.824 25.3906C137.824 23.9602 139.099 23.1206 140.654 23.1206C141.929 23.1206 143.173 23.5559 143.826 24.4266V26.2923Z" fill="black"/>
<path d="M156.73 30.2726C158.378 30.2726 159.435 29.8373 160.026 29.3086L159.186 26.3234C158.968 26.5411 158.409 26.7588 157.818 26.7588C156.947 26.7588 156.45 26.0436 156.45 25.1107V18.3318H159.497V14.8802H156.45V10.7755H152.469V14.8802H149.982V18.3318H152.469V26.168C152.469 28.8422 153.962 30.2726 156.73 30.2726Z" fill="black"/>
<path d="M164.158 12.6724C165.464 12.6724 166.521 11.6151 166.521 10.3091C166.521 9.00306 165.464 7.9458 164.158 7.9458C162.883 7.9458 161.795 9.00306 161.795 10.3091C161.795 11.6151 162.883 12.6724 164.158 12.6724ZM162.199 29.8995H166.148V14.8802H162.199V29.8995Z" fill="black"/>
<path d="M169.1 22.3743C169.1 27.0075 172.427 30.2726 177.061 30.2726C180.139 30.2726 182.005 28.9355 183 27.5362L180.419 25.1418C179.704 26.1369 178.615 26.7588 177.247 26.7588C174.853 26.7588 173.174 24.9863 173.174 22.3743C173.174 19.7622 174.853 18.0209 177.247 18.0209C178.615 18.0209 179.704 18.6117 180.419 19.6378L183 17.2435C182.005 15.8441 180.139 14.507 177.061 14.507C172.427 14.507 169.1 17.7721 169.1 22.3743Z" fill="black"/>
<path fill-rule="evenodd" clip-rule="evenodd" d="M17.9399 0.896484H26.9099H35.8799V10.0963H26.9099H17.9399H8.96996V19.2961V19.886V28.4424V28.496V37.6422H0V28.496V28.4424V19.886V19.2961V10.0963V0.896484H8.96996H17.9399ZM26.9105 28.4452H17.9928V19.299H35.8752V28.767C35.8752 31.1207 34.9639 33.378 33.3417 35.0428C31.7195 36.7076 29.5191 37.6436 27.2242 37.6451H26.9105V28.4452Z" fill="#6851FF"/>
</svg>
