<svg version="1.1" viewBox="0.0 0.0 960.0 720.0" fill="none" stroke="none" stroke-linecap="square" stroke-miterlimit="10" xmlns:xlink="http://www.w3.org/1999/xlink" xmlns="http://www.w3.org/2000/svg"><clipPath id="p.0"><path d="m0 0l960.0 0l0 720.0l-960.0 0l0 -720.0z" clip-rule="nonzero"/></clipPath><g clip-path="url(#p.0)"><path fill="#000000" fill-opacity="0.0" d="m0 0l960.0 0l0 720.0l-960.0 0z" fill-rule="evenodd"/><path fill="#000000" fill-opacity="0.0" d="m396.69815 288.3386l70.77167 0l0 86.519684l-70.77167 0z" fill-rule="evenodd"/><path fill="#cc0000" d="m405.6044 358.7786l17.59375 -45.8125l6.53125 0l18.75 45.8125l-6.90625 0l-5.34375 -13.875l-19.15625 0l-5.03125 13.875l-6.4375 0zm13.21875 -18.8125l15.53125 0l-4.78125 -12.6875q-2.1875 -5.78125 -3.25 -9.5q-0.875 4.40625 -2.46875 8.75l-5.03125 13.4375z" fill-rule="nonzero"/><path fill="#000000" fill-opacity="0.0" d="m396.69815 288.3386l58.551178 0l0 67.27557l-58.551178 0z" fill-rule="evenodd"/><path fill="#6aa84f" d="m410.38565 358.7786l0 -45.8125l6.0625 0l0 40.40625l22.5625 0l0 5.40625l-28.625 0z" fill-rule="nonzero"/><path fill="#000000" fill-opacity="0.0" d="m396.69815 302.33072l70.77167 0l0 72.53543l-70.77167 0z" fill-rule="evenodd"/><path fill="#674ea7" d="m425.4794 343.92633l0 -4.03125l14.5625 -0.015625l0 12.75q-3.359375 2.671875 -6.921875 4.03125q-3.5625 1.34375 -7.3125 1.34375q-5.0625 0 -9.203125 -2.171875q-4.125 -2.171875 -6.234375 -6.265625q-2.109375 -4.109375 -2.109375 -9.171875q0 -5.015625 2.09375 -9.359375q2.09375 -4.359375 6.03125 -6.46875q3.9375 -2.109375 9.078125 -2.109375q3.71875 0 6.734375 1.21875q3.015625 1.203125 4.71875 3.359375q1.71875 2.15625 2.609375 5.625l-4.109375 1.125q-0.765625 -2.625 -1.921875 -4.125q-1.140625 -1.5 -3.28125 -2.40625q-2.125 -0.90625 -4.734375 -0.90625q-3.109375 0 -5.390625 0.953125q-2.265625 0.953125 -3.671875 2.5q-1.390625 1.546875 -2.15625 3.390625q-1.3125 3.1875 -1.3125 6.921875q0 4.59375 1.578125 7.6875q1.578125 3.09375 4.59375 4.59375q3.03125 1.5 6.4375 1.5q2.953125 0 5.765625 -1.140625q2.8125 -1.140625 4.265625 -2.421875l0 -6.40625l-10.109375 0z" fill-rule="nonzero"/></g></svg>